<svg width="64" height="64" viewBox="0 0 64 64" fill="none" xmlns="http://www.w3.org/2000/svg">
<path d="M21.2886 47.5553H42.7113V43.1113H21.2886V47.5553ZM21.2886 36.4447H42.7113V32H21.2886V36.4447ZM15.1113 58.6667C13.9113 58.6667 12.8704 58.226 11.9886 57.3447C11.1073 56.4629 10.6666 55.422 10.6666 54.222V9.77799C10.6666 8.57799 11.1073 7.53711 11.9886 6.65533C12.8704 5.774 13.9113 5.33333 15.1113 5.33333H38.2666L53.3333 20.4V54.222C53.3333 55.422 52.8926 56.4629 52.0113 57.3447C51.1295 58.226 50.0886 58.6667 48.8886 58.6667H15.1113ZM36.0446 22.4887V9.77799H15.1113V54.222H48.8886V22.4887H36.0446Z" fill="#F9F9F9"/>
</svg>
