<svg width="64" height="64" viewBox="0 0 64 64" fill="none" xmlns="http://www.w3.org/2000/svg">
<path d="M37.3334 26.4V21.8667C38.8001 21.2444 40.3001 20.7778 41.8334 20.4667C43.3667 20.1556 44.9779 20 46.6668 20C47.8223 20 48.9556 20.0889 50.0667 20.2667C51.1779 20.4444 52.2668 20.6667 53.3334 20.9333V25.2C52.2668 24.8 51.189 24.5 50.1001 24.3C49.0112 24.1 47.8667 24 46.6668 24C44.9779 24 43.3556 24.2111 41.8001 24.6333C40.2445 25.0556 38.7556 25.6444 37.3334 26.4ZM37.3334 41.0667V36.5333C38.8001 35.9111 40.3001 35.4444 41.8334 35.1333C43.3667 34.8222 44.9779 34.6667 46.6668 34.6667C47.8223 34.6667 48.9556 34.7556 50.0667 34.9333C51.1779 35.1111 52.2668 35.3333 53.3334 35.6V39.8667C52.2668 39.4667 51.189 39.1667 50.1001 38.9667C49.0112 38.7667 47.8667 38.6667 46.6668 38.6667C44.9779 38.6667 43.3556 38.8667 41.8001 39.2667C40.2445 39.6667 38.7556 40.2667 37.3334 41.0667ZM37.3334 33.7333V29.2C38.8001 28.5778 40.3001 28.1111 41.8334 27.8C43.3667 27.4889 44.9779 27.3333 46.6668 27.3333C47.8223 27.3333 48.9556 27.4222 50.0667 27.6C51.1779 27.7778 52.2668 28 53.3334 28.2667V32.5333C52.2668 32.1333 51.189 31.8333 50.1001 31.6333C49.0112 31.4333 47.8667 31.3333 46.6668 31.3333C44.9779 31.3333 43.3556 31.5444 41.8001 31.9667C40.2445 32.3889 38.7556 32.9778 37.3334 33.7333ZM17.3334 42.6667C19.4223 42.6667 21.4556 42.9 23.4334 43.3667C25.4112 43.8333 27.3779 44.5333 29.3334 45.4667V19.2C27.5112 18.1333 25.5779 17.3333 23.5334 16.8C21.489 16.2667 19.4223 16 17.3334 16C15.7334 16 14.1445 16.1556 12.5667 16.4667C10.989 16.7778 9.46675 17.2444 8.00008 17.8667V44.2667C9.55564 43.7333 11.1001 43.3333 12.6334 43.0667C14.1667 42.8 15.7334 42.6667 17.3334 42.6667ZM34.6667 45.4667C36.6223 44.5333 38.589 43.8333 40.5667 43.3667C42.5445 42.9 44.5779 42.6667 46.6668 42.6667C48.2668 42.6667 49.8334 42.8 51.3667 43.0667C52.9001 43.3333 54.4445 43.7333 56.0001 44.2667V17.8667C54.5334 17.2444 53.0112 16.7778 51.4334 16.4667C49.8556 16.1556 48.2668 16 46.6668 16C44.5779 16 42.5112 16.2667 40.4668 16.8C38.4223 17.3333 36.489 18.1333 34.6667 19.2V45.4667ZM32.0001 53.3333C29.8667 51.6444 27.5556 50.3333 25.0667 49.4C22.5779 48.4667 20.0001 48 17.3334 48C15.4667 48 13.6334 48.2444 11.8334 48.7333C10.0334 49.2222 8.31119 49.9111 6.66675 50.8C5.73341 51.2889 4.83341 51.2667 3.96675 50.7333C3.10008 50.2 2.66675 49.4222 2.66675 48.4V16.2667C2.66675 15.7778 2.78897 15.3111 3.03341 14.8667C3.27786 14.4222 3.64453 14.0889 4.13341 13.8667C6.17786 12.8 8.31119 12 10.5334 11.4667C12.7556 10.9333 15.0223 10.6667 17.3334 10.6667C19.9112 10.6667 22.4334 11 24.9001 11.6667C27.3667 12.3333 29.7334 13.3333 32.0001 14.6667C34.2668 13.3333 36.6334 12.3333 39.1001 11.6667C41.5667 11 44.089 10.6667 46.6668 10.6667C48.9779 10.6667 51.2445 10.9333 53.4668 11.4667C55.689 12 57.8223 12.8 59.8668 13.8667C60.3556 14.0889 60.7223 14.4222 60.9668 14.8667C61.2112 15.3111 61.3334 15.7778 61.3334 16.2667V48.4C61.3334 49.4222 60.9001 50.2 60.0334 50.7333C59.1668 51.2667 58.2668 51.2889 57.3334 50.8C55.689 49.9111 53.9668 49.2222 52.1668 48.7333C50.3667 48.2444 48.5334 48 46.6668 48C44.0001 48 41.4223 48.4667 38.9334 49.4C36.4445 50.3333 34.1334 51.6444 32.0001 53.3333Z" fill="#F9F9F9"/>
</svg>
