<svg width="64" height="64" viewBox="0 0 64 64" fill="none" xmlns="http://www.w3.org/2000/svg">
<path d="M16 48.3333V51C16 51.7556 15.7444 52.3889 15.2333 52.9C14.7222 53.4111 14.0889 53.6667 13.3333 53.6667H10.6667C9.91111 53.6667 9.27778 53.4111 8.76667 52.9C8.25556 52.3889 8 51.7556 8 51V29.6667L13.6 13.6667C13.8667 12.8667 14.3444 12.2222 15.0333 11.7333C15.7222 11.2444 16.4889 11 17.3333 11H46.6667C47.5111 11 48.2778 11.2444 48.9667 11.7333C49.6556 12.2222 50.1333 12.8667 50.4 13.6667L56 29.6667V51C56 51.7556 55.7444 52.3889 55.2333 52.9C54.7222 53.4111 54.0889 53.6667 53.3333 53.6667H50.6667C49.9111 53.6667 49.2778 53.4111 48.7667 52.9C48.2556 52.3889 48 51.7556 48 51V48.3333H16ZM15.4667 24.3333H48.5333L45.7333 16.3333H18.2667L15.4667 24.3333ZM20 40.3333C21.1111 40.3333 22.0556 39.9444 22.8333 39.1667C23.6111 38.3889 24 37.4444 24 36.3333C24 35.2222 23.6111 34.2778 22.8333 33.5C22.0556 32.7222 21.1111 32.3333 20 32.3333C18.8889 32.3333 17.9444 32.7222 17.1667 33.5C16.3889 34.2778 16 35.2222 16 36.3333C16 37.4444 16.3889 38.3889 17.1667 39.1667C17.9444 39.9444 18.8889 40.3333 20 40.3333ZM44 40.3333C45.1111 40.3333 46.0556 39.9444 46.8333 39.1667C47.6111 38.3889 48 37.4444 48 36.3333C48 35.2222 47.6111 34.2778 46.8333 33.5C46.0556 32.7222 45.1111 32.3333 44 32.3333C42.8889 32.3333 41.9444 32.7222 41.1667 33.5C40.3889 34.2778 40 35.2222 40 36.3333C40 37.4444 40.3889 38.3889 41.1667 39.1667C41.9444 39.9444 42.8889 40.3333 44 40.3333ZM13.3333 43H50.6667V29.6667H13.3333V43Z" fill="#F2F2F2"/>
</svg>
