<svg width="64" height="64" viewBox="0 0 64 64" fill="none" xmlns="http://www.w3.org/2000/svg">
<path d="M37.3334 26.4001V21.8667C38.8001 21.2445 40.3001 20.7779 41.8334 20.4667C43.3667 20.1556 44.9779 20.0001 46.6668 20.0001C47.8223 20.0001 48.9556 20.089 50.0667 20.2667C51.1779 20.4445 52.2668 20.6667 53.3334 20.9334V25.2001C52.2668 24.8001 51.189 24.5001 50.1001 24.3001C49.0112 24.1001 47.8667 24.0001 46.6668 24.0001C44.9779 24.0001 43.3556 24.2112 41.8001 24.6334C40.2445 25.0556 38.7556 25.6445 37.3334 26.4001ZM37.3334 41.0668V36.5334C38.8001 35.9112 40.3001 35.4445 41.8334 35.1334C43.3667 34.8223 44.9779 34.6668 46.6668 34.6668C47.8223 34.6668 48.9556 34.7556 50.0667 34.9334C51.1779 35.1112 52.2668 35.3334 53.3334 35.6001V39.8668C52.2668 39.4668 51.189 39.1668 50.1001 38.9668C49.0112 38.7668 47.8667 38.6668 46.6668 38.6668C44.9779 38.6668 43.3556 38.8668 41.8001 39.2668C40.2445 39.6668 38.7556 40.2668 37.3334 41.0668ZM37.3334 33.7334V29.2001C38.8001 28.5779 40.3001 28.1112 41.8334 27.8001C43.3667 27.489 44.9779 27.3334 46.6668 27.3334C47.8223 27.3334 48.9556 27.4223 50.0667 27.6001C51.1779 27.7779 52.2668 28.0001 53.3334 28.2668V32.5334C52.2668 32.1334 51.189 31.8334 50.1001 31.6334C49.0112 31.4334 47.8667 31.3334 46.6668 31.3334C44.9779 31.3334 43.3556 31.5445 41.8001 31.9668C40.2445 32.389 38.7556 32.9779 37.3334 33.7334ZM17.3334 42.6668C19.4223 42.6668 21.4556 42.9001 23.4334 43.3668C25.4112 43.8334 27.3779 44.5334 29.3334 45.4668V19.2001C27.5112 18.1334 25.5779 17.3334 23.5334 16.8001C21.489 16.2667 19.4223 16.0001 17.3334 16.0001C15.7334 16.0001 14.1445 16.1556 12.5667 16.4667C10.989 16.7779 9.46675 17.2445 8.00008 17.8667V44.2668C9.55564 43.7334 11.1001 43.3334 12.6334 43.0668C14.1667 42.8001 15.7334 42.6668 17.3334 42.6668ZM34.6667 45.4668C36.6223 44.5334 38.589 43.8334 40.5667 43.3668C42.5445 42.9001 44.5779 42.6668 46.6668 42.6668C48.2668 42.6668 49.8334 42.8001 51.3667 43.0668C52.9001 43.3334 54.4445 43.7334 56.0001 44.2668V17.8667C54.5334 17.2445 53.0112 16.7779 51.4334 16.4667C49.8556 16.1556 48.2668 16.0001 46.6668 16.0001C44.5779 16.0001 42.5112 16.2667 40.4668 16.8001C38.4223 17.3334 36.489 18.1334 34.6667 19.2001V45.4668ZM32.0001 53.3334C29.8667 51.6445 27.5556 50.3334 25.0667 49.4001C22.5779 48.4668 20.0001 48.0001 17.3334 48.0001C15.4667 48.0001 13.6334 48.2445 11.8334 48.7334C10.0334 49.2223 8.31119 49.9112 6.66675 50.8001C5.73341 51.289 4.83341 51.2668 3.96675 50.7334C3.10008 50.2001 2.66675 49.4223 2.66675 48.4001V16.2667C2.66675 15.7779 2.78897 15.3112 3.03341 14.8667C3.27786 14.4223 3.64453 14.089 4.13341 13.8667C6.17786 12.8001 8.31119 12.0001 10.5334 11.4667C12.7556 10.9334 15.0223 10.6667 17.3334 10.6667C19.9112 10.6667 22.4334 11.0001 24.9001 11.6667C27.3667 12.3334 29.7334 13.3334 32.0001 14.6667C34.2668 13.3334 36.6334 12.3334 39.1001 11.6667C41.5667 11.0001 44.089 10.6667 46.6668 10.6667C48.9779 10.6667 51.2445 10.9334 53.4668 11.4667C55.689 12.0001 57.8223 12.8001 59.8668 13.8667C60.3556 14.089 60.7223 14.4223 60.9668 14.8667C61.2112 15.3112 61.3334 15.7779 61.3334 16.2667V48.4001C61.3334 49.4223 60.9001 50.2001 60.0334 50.7334C59.1668 51.2668 58.2668 51.289 57.3334 50.8001C55.689 49.9112 53.9668 49.2223 52.1668 48.7334C50.3667 48.2445 48.5334 48.0001 46.6668 48.0001C44.0001 48.0001 41.4223 48.4668 38.9334 49.4001C36.4445 50.3334 34.1334 51.6445 32.0001 53.3334Z" fill="#181818"/>
</svg>
