<svg width="64" height="64" viewBox="0 0 64 64" fill="none" xmlns="http://www.w3.org/2000/svg">
<path d="M31.6667 53.3334C31.8445 53.3334 32.0222 53.2889 32.2 53.2C32.3778 53.1111 32.5111 53.0223 32.6 52.9334L54.4667 31.0667C55 30.5334 55.3889 29.9334 55.6333 29.2667C55.8778 28.6 56 27.9334 56 27.2667C56 26.5556 55.8778 25.8778 55.6333 25.2334C55.3889 24.5889 55 24.0223 54.4667 23.5334L43.1333 12.2C42.6445 11.6667 42.0778 11.2778 41.4333 11.0334C40.7889 10.7889 40.1111 10.6667 39.4 10.6667C38.7333 10.6667 38.0667 10.7889 37.4 11.0334C36.7333 11.2778 36.1333 11.6667 35.6 12.2L34.8667 12.9334L39.8 17.9334C40.4667 18.5556 40.9556 19.2667 41.2667 20.0667C41.5778 20.8667 41.7333 21.7112 41.7333 22.6C41.7333 24.4667 41.1 26.0334 39.8333 27.3C38.5667 28.5667 37 29.2 35.1333 29.2C34.2445 29.2 33.3889 29.0445 32.5667 28.7334C31.7445 28.4223 31.0222 27.9556 30.4 27.3334L25.4 22.4L13.7333 34.0667C13.6 34.2 13.5 34.3445 13.4333 34.5C13.3667 34.6556 13.3333 34.8223 13.3333 35C13.3333 35.3556 13.4667 35.6778 13.7333 35.9667C14 36.2556 14.3111 36.4 14.6667 36.4C14.8445 36.4 15.0222 36.3556 15.2 36.2667C15.3778 36.1778 15.5111 36.0889 15.6 36L24.6667 26.9334L28.4 30.6667L19.4 39.7334C19.2667 39.8667 19.1667 40.0112 19.1 40.1667C19.0333 40.3223 19 40.4889 19 40.6667C19 41.0223 19.1333 41.3334 19.4 41.6C19.6667 41.8667 19.9778 42 20.3333 42C20.5111 42 20.6889 41.9556 20.8667 41.8667C21.0445 41.7778 21.1778 41.6889 21.2667 41.6L30.3333 32.6L34.0667 36.3334L25.0667 45.4C24.9333 45.4889 24.8333 45.6223 24.7667 45.8C24.7 45.9778 24.6667 46.1556 24.6667 46.3334C24.6667 46.6889 24.8 47 25.0667 47.2667C25.3333 47.5334 25.6445 47.6667 26 47.6667C26.1778 47.6667 26.3445 47.6334 26.5 47.5667C26.6556 47.5 26.8 47.4 26.9333 47.2667L36 38.2667L39.7333 42L30.6667 51.0667C30.5333 51.2 30.4333 51.3445 30.3667 51.5C30.3 51.6556 30.2667 51.8223 30.2667 52C30.2667 52.3556 30.4111 52.6667 30.7 52.9334C30.9889 53.2 31.3111 53.3334 31.6667 53.3334ZM31.6 58.6667C29.9556 58.6667 28.5 58.1223 27.2333 57.0334C25.9667 55.9445 25.2222 54.5778 25 52.9334C23.4889 52.7111 22.2222 52.0889 21.2 51.0667C20.1778 50.0445 19.5556 48.7778 19.3333 47.2667C17.8222 47.0445 16.5667 46.4111 15.5667 45.3667C14.5667 44.3223 13.9556 43.0667 13.7333 41.6C12.0445 41.3778 10.6667 40.6445 9.60001 39.4C8.53335 38.1556 8.00001 36.6889 8.00001 35C8.00001 34.1112 8.16668 33.2556 8.50001 32.4334C8.83335 31.6112 9.31113 30.8889 9.93335 30.2667L25.4 14.8667L34.1333 23.6C34.2222 23.7334 34.3556 23.8334 34.5333 23.9C34.7111 23.9667 34.8889 24 35.0667 24C35.4667 24 35.8 23.8778 36.0667 23.6334C36.3333 23.3889 36.4667 23.0667 36.4667 22.6667C36.4667 22.4889 36.4333 22.3112 36.3667 22.1334C36.3 21.9556 36.2 21.8223 36.0667 21.7334L26.5333 12.2C26.0445 11.6667 25.4778 11.2778 24.8333 11.0334C24.1889 10.7889 23.5111 10.6667 22.8 10.6667C22.1333 10.6667 21.4667 10.7889 20.8 11.0334C20.1333 11.2778 19.5333 11.6667 19 12.2L9.60001 21.6667C9.20001 22.0667 8.86668 22.5334 8.60001 23.0667C8.33335 23.6 8.15557 24.1334 8.06668 24.6667C7.97779 25.2 7.97779 25.7445 8.06668 26.3C8.15557 26.8556 8.33335 27.3778 8.60001 27.8667L4.73335 31.7334C3.97779 30.7112 3.42224 29.5889 3.06668 28.3667C2.71113 27.1445 2.57779 25.9111 2.66668 24.6667C2.75557 23.4223 3.06668 22.2112 3.60001 21.0334C4.13335 19.8556 4.86668 18.8 5.80001 17.8667L15.2 8.46671C16.2667 7.44448 17.4556 6.66671 18.7667 6.13337C20.0778 5.60004 21.4222 5.33337 22.8 5.33337C24.1778 5.33337 25.5222 5.60004 26.8333 6.13337C28.1445 6.66671 29.3111 7.44448 30.3333 8.46671L31.0667 9.20004L31.8 8.46671C32.8667 7.44448 34.0556 6.66671 35.3667 6.13337C36.6778 5.60004 38.0222 5.33337 39.4 5.33337C40.7778 5.33337 42.1222 5.60004 43.4333 6.13337C44.7445 6.66671 45.9111 7.44448 46.9333 8.46671L58.2 19.7334C59.2222 20.7556 60 21.9334 60.5333 23.2667C61.0667 24.6 61.3333 25.9556 61.3333 27.3334C61.3333 28.7112 61.0667 30.0556 60.5333 31.3667C60 32.6778 59.2222 33.8445 58.2 34.8667L36.3333 56.6667C35.7111 57.2889 34.9889 57.7778 34.1667 58.1334C33.3445 58.4889 32.4889 58.6667 31.6 58.6667Z" fill="#F2F2F2"/>
</svg>
