<svg width="64" height="64" viewBox="0 0 64 64" fill="none" xmlns="http://www.w3.org/2000/svg">
<path d="M18.6667 58.6667C17.2001 58.6667 15.9445 58.1445 14.9001 57.1C13.8556 56.0556 13.3334 54.8 13.3334 53.3334C13.3334 51.8667 13.8556 50.6111 14.9001 49.5667C15.9445 48.5223 17.2001 48 18.6667 48C20.1334 48 21.389 48.5223 22.4334 49.5667C23.4779 50.6111 24.0001 51.8667 24.0001 53.3334C24.0001 54.8 23.4779 56.0556 22.4334 57.1C21.389 58.1445 20.1334 58.6667 18.6667 58.6667ZM45.3334 58.6667C43.8667 58.6667 42.6112 58.1445 41.5667 57.1C40.5223 56.0556 40.0001 54.8 40.0001 53.3334C40.0001 51.8667 40.5223 50.6111 41.5667 49.5667C42.6112 48.5223 43.8667 48 45.3334 48C46.8001 48 48.0556 48.5223 49.1001 49.5667C50.1445 50.6111 50.6668 51.8667 50.6668 53.3334C50.6668 54.8 50.1445 56.0556 49.1001 57.1C48.0556 58.1445 46.8001 58.6667 45.3334 58.6667ZM16.4001 16L22.8001 29.3334H41.4668L48.8001 16H16.4001ZM13.8667 10.6667H53.2001C54.2223 10.6667 55.0001 11.1223 55.5334 12.0334C56.0667 12.9445 56.089 13.8667 55.6001 14.8L46.1334 31.8667C45.6445 32.7556 44.989 33.4445 44.1668 33.9334C43.3445 34.4223 42.4445 34.6667 41.4668 34.6667H21.6001L18.6667 40H50.6668V45.3334H18.6667C16.6667 45.3334 15.1556 44.4556 14.1334 42.7C13.1112 40.9445 13.0667 39.2 14.0001 37.4667L17.6001 30.9334L8.00008 10.6667H2.66675V5.33337H11.3334L13.8667 10.6667Z" fill="#F2F2F2"/>
</svg>
