<svg width="64" height="64" viewBox="0 0 64 64" fill="none" xmlns="http://www.w3.org/2000/svg">
<path d="M29.9114 45.3333H34.3554V29.3333H29.9114V45.3333ZM31.9994 24.2666C32.6665 24.2666 33.226 24.0451 33.678 23.602C34.1296 23.1593 34.3554 22.6104 34.3554 21.9553C34.3554 21.2753 34.1298 20.7053 33.6787 20.2453C33.2272 19.7853 32.6678 19.5553 32.0007 19.5553C31.3336 19.5553 30.774 19.7853 30.322 20.2453C29.8705 20.7053 29.6447 21.2753 29.6447 21.9553C29.6447 22.6104 29.8703 23.1593 30.3214 23.602C30.7729 24.0451 31.3323 24.2666 31.9994 24.2666ZM32.012 58.6667C28.3307 58.6667 24.8714 57.9667 21.634 56.5667C18.3967 55.1667 15.5705 53.2593 13.1554 50.8447C10.7407 48.4295 8.83337 45.6022 7.43337 42.3627C6.03337 39.1231 5.33337 35.6615 5.33337 31.978C5.33337 28.2944 6.03337 24.8327 7.43337 21.5926C8.83337 18.3531 10.7407 15.5333 13.1554 13.1333C15.5705 10.7333 18.3978 8.83331 21.6374 7.43331C24.8769 6.03331 28.3385 5.33331 32.022 5.33331C35.7056 5.33331 39.1674 6.03331 42.4074 7.43331C45.6469 8.83331 48.4667 10.7333 50.8667 13.1333C53.2667 15.5333 55.1667 18.3555 56.5667 21.6C57.9667 24.8444 58.6667 28.3071 58.6667 31.988C58.6667 35.6693 57.9667 39.1287 56.5667 42.366C55.1667 45.6033 53.2667 48.4267 50.8667 50.836C48.4667 53.2453 45.6445 55.1529 42.4 56.5587C39.1556 57.964 35.6929 58.6667 32.012 58.6667ZM32.022 54.222C38.1998 54.222 43.4443 52.0591 47.7554 47.7333C52.0665 43.4075 54.222 38.1558 54.222 31.978C54.222 25.8002 52.0694 20.5558 47.764 16.2446C43.4583 11.9335 38.2036 9.77798 32 9.77798C25.8369 9.77798 20.5925 11.9306 16.2667 16.236C11.9409 20.5418 9.77804 25.7964 9.77804 32C9.77804 38.1631 11.9409 43.4075 16.2667 47.7333C20.5925 52.0591 25.8443 54.222 32.022 54.222Z" fill="#F9F9F9"/>
</svg>
