<svg width="163" height="45" viewBox="0 0 163 45" fill="none" xmlns="http://www.w3.org/2000/svg">
<path d="M102 24C102 12.402 111.402 3 123 3C134.598 3 144 12.402 144 24C144 35.598 134.598 45 123 45C111.402 45 102 35.598 102 24Z" fill="#F9F9F9"/>
<path d="M2.88 35V5.32H9.12V35H2.88ZM25.5913 35.32C23.1379 35.32 20.9779 34.84 19.1113 33.88C17.2713 32.92 15.8446 31.6133 14.8313 29.96C13.8179 28.28 13.3113 26.3733 13.3113 24.24C13.3113 22.08 13.8046 20.1733 14.7913 18.52C15.8046 16.84 17.1779 15.5333 18.9113 14.6C20.6446 13.64 22.6046 13.16 24.7913 13.16C26.8979 13.16 28.7913 13.6133 30.4713 14.52C32.1779 15.4 33.5246 16.68 34.5113 18.36C35.4979 20.0133 35.9913 22 35.9913 24.32C35.9913 24.56 35.9779 24.84 35.9513 25.16C35.9246 25.4533 35.8979 25.7333 35.8713 26H18.3913V22.36H32.5912L30.1913 23.44C30.1913 22.32 29.9646 21.3467 29.5113 20.52C29.0579 19.6933 28.4313 19.0533 27.6313 18.6C26.8313 18.12 25.8979 17.88 24.8313 17.88C23.7646 17.88 22.8179 18.12 21.9913 18.6C21.1913 19.0533 20.5646 19.7067 20.1113 20.56C19.6579 21.3867 19.4313 22.3733 19.4313 23.52V24.48C19.4313 25.6533 19.6846 26.6933 20.1913 27.6C20.7246 28.48 21.4579 29.16 22.3913 29.64C23.3513 30.0933 24.4713 30.32 25.7513 30.32C26.8979 30.32 27.8979 30.1467 28.7513 29.8C29.6313 29.4533 30.4313 28.9333 31.1513 28.24L34.4713 31.84C33.4846 32.96 32.2446 33.8267 30.7513 34.44C29.2579 35.0267 27.5379 35.32 25.5913 35.32ZM50.2656 43.08C48.239 43.08 46.279 42.8267 44.3856 42.32C42.519 41.84 40.959 41.1067 39.7056 40.12L42.1856 35.64C43.0923 36.3867 44.239 36.9733 45.6256 37.4C47.039 37.8533 48.4256 38.08 49.7856 38.08C51.999 38.08 53.599 37.5867 54.5856 36.6C55.599 35.6133 56.1056 34.1467 56.1056 32.2V28.96L56.5056 23.56L56.4256 18.12V13.48H62.3456V31.4C62.3456 35.4 61.3056 38.3467 59.2256 40.24C57.1456 42.1333 54.159 43.08 50.2656 43.08ZM49.3056 33.96C47.3056 33.96 45.4923 33.5333 43.8656 32.68C42.2656 31.8 40.9723 30.5867 39.9856 29.04C39.0256 27.4667 38.5456 25.64 38.5456 23.56C38.5456 21.4533 39.0256 19.6267 39.9856 18.08C40.9723 16.5067 42.2656 15.2933 43.8656 14.44C45.4923 13.5867 47.3056 13.16 49.3056 13.16C51.119 13.16 52.719 13.5333 54.1056 14.28C55.4923 15 56.5723 16.1333 57.3456 17.68C58.119 19.2 58.5056 21.16 58.5056 23.56C58.5056 25.9333 58.119 27.8933 57.3456 29.44C56.5723 30.96 55.4923 32.0933 54.1056 32.84C52.719 33.5867 51.119 33.96 49.3056 33.96ZM50.5456 28.84C51.639 28.84 52.6123 28.6267 53.4656 28.2C54.319 27.7467 54.9856 27.12 55.4656 26.32C55.9456 25.52 56.1856 24.6 56.1856 23.56C56.1856 22.4933 55.9456 21.5733 55.4656 20.8C54.9856 20 54.319 19.3867 53.4656 18.96C52.6123 18.5067 51.639 18.28 50.5456 18.28C49.4523 18.28 48.479 18.5067 47.6256 18.96C46.7723 19.3867 46.0923 20 45.5856 20.8C45.1056 21.5733 44.8656 22.4933 44.8656 23.56C44.8656 24.6 45.1056 25.52 45.5856 26.32C46.0923 27.12 46.7723 27.7467 47.6256 28.2C48.479 28.6267 49.4523 28.84 50.5456 28.84ZM68.1534 35V13.48H74.3934V35H68.1534ZM71.2734 10.48C70.1268 10.48 69.1934 10.1467 68.4734 9.48C67.7534 8.81333 67.3934 7.98666 67.3934 7C67.3934 6.01333 67.7534 5.18667 68.4734 4.52C69.1934 3.85333 70.1268 3.52 71.2734 3.52C72.4201 3.52 73.3534 3.84 74.0734 4.48C74.7934 5.09333 75.1534 5.89333 75.1534 6.88C75.1534 7.92 74.7934 8.78667 74.0734 9.48C73.3801 10.1467 72.4468 10.48 71.2734 10.48ZM87.4247 35.32C85.5847 35.32 83.8114 35.1067 82.1047 34.68C80.4247 34.2267 79.0914 33.6667 78.1047 33L80.1847 28.52C81.1714 29.1333 82.3314 29.64 83.6647 30.04C85.0247 30.4133 86.358 30.6 87.6647 30.6C89.1047 30.6 90.118 30.4267 90.7047 30.08C91.318 29.7333 91.6247 29.2533 91.6247 28.64C91.6247 28.1333 91.3847 27.76 90.9047 27.52C90.4514 27.2533 89.838 27.0533 89.0647 26.92C88.2914 26.7867 87.438 26.6533 86.5047 26.52C85.598 26.3867 84.678 26.2133 83.7447 26C82.8114 25.76 81.958 25.4133 81.1847 24.96C80.4114 24.5067 79.7847 23.8933 79.3047 23.12C78.8514 22.3467 78.6247 21.3467 78.6247 20.12C78.6247 18.76 79.0114 17.56 79.7847 16.52C80.5847 15.48 81.7314 14.6667 83.2247 14.08C84.718 13.4667 86.5047 13.16 88.5847 13.16C90.0514 13.16 91.5447 13.32 93.0647 13.64C94.5847 13.96 95.8514 14.4267 96.8647 15.04L94.7847 19.48C93.7447 18.8667 92.6914 18.4533 91.6247 18.24C90.5847 18 89.5714 17.88 88.5847 17.88C87.198 17.88 86.1847 18.0667 85.5447 18.44C84.9047 18.8133 84.5847 19.2933 84.5847 19.88C84.5847 20.4133 84.8114 20.8133 85.2647 21.08C85.7447 21.3467 86.3714 21.56 87.1447 21.72C87.918 21.88 88.758 22.0267 89.6647 22.16C90.598 22.2667 91.5314 22.44 92.4647 22.68C93.398 22.92 94.238 23.2667 94.9847 23.72C95.758 24.1467 96.3847 24.7467 96.8647 25.52C97.3447 26.2667 97.5847 27.2533 97.5847 28.48C97.5847 29.8133 97.1847 31 96.3847 32.04C95.5847 33.0533 94.4247 33.8533 92.9047 34.44C91.4114 35.0267 89.5847 35.32 87.4247 35.32ZM101.435 35V5.32H107.675V35H101.435ZM126.666 35V30.8L126.266 29.88V22.36C126.266 21.0267 125.853 19.9867 125.026 19.24C124.226 18.4933 122.986 18.12 121.306 18.12C120.159 18.12 119.026 18.3067 117.906 18.68C116.813 19.0267 115.879 19.5067 115.106 20.12L112.866 15.76C114.039 14.9333 115.453 14.2933 117.106 13.84C118.759 13.3867 120.439 13.16 122.146 13.16C125.426 13.16 127.973 13.9333 129.786 15.48C131.599 17.0267 132.506 19.44 132.506 22.72V35H126.666ZM120.106 35.32C118.426 35.32 116.986 35.04 115.786 34.48C114.586 33.8933 113.666 33.1067 113.026 32.12C112.386 31.1333 112.066 30.0267 112.066 28.8C112.066 27.52 112.373 26.4 112.986 25.44C113.626 24.48 114.626 23.7333 115.986 23.2C117.346 22.64 119.119 22.36 121.306 22.36H127.026V26H121.986C120.519 26 119.506 26.24 118.946 26.72C118.413 27.2 118.146 27.8 118.146 28.52C118.146 29.32 118.453 29.96 119.066 30.44C119.706 30.8933 120.573 31.12 121.666 31.12C122.706 31.12 123.639 30.88 124.466 30.4C125.293 29.8933 125.893 29.16 126.266 28.2L127.226 31.08C126.773 32.4667 125.946 33.52 124.746 34.24C123.546 34.96 121.999 35.32 120.106 35.32ZM150.873 35.32C148.98 35.32 147.353 34.92 145.993 34.12C144.633 33.32 143.593 32.1067 142.873 30.48C142.153 28.8267 141.793 26.7467 141.793 24.24C141.793 21.7067 142.167 19.6267 142.913 18C143.687 16.3733 144.753 15.16 146.113 14.36C147.473 13.56 149.06 13.16 150.873 13.16C152.9 13.16 154.713 13.6133 156.313 14.52C157.94 15.4267 159.22 16.7067 160.153 18.36C161.113 20.0133 161.593 21.9733 161.593 24.24C161.593 26.48 161.113 28.4267 160.153 30.08C159.22 31.7333 157.94 33.0267 156.313 33.96C154.713 34.8667 152.9 35.32 150.873 35.32ZM138.153 35V5.32H144.393V17.84L143.993 24.2L144.113 30.6V35H138.153ZM149.793 30.2C150.833 30.2 151.753 29.96 152.553 29.48C153.38 29 154.033 28.32 154.513 27.44C155.02 26.5333 155.273 25.4667 155.273 24.24C155.273 22.9867 155.02 21.92 154.513 21.04C154.033 20.16 153.38 19.48 152.553 19C151.753 18.52 150.833 18.28 149.793 18.28C148.753 18.28 147.82 18.52 146.993 19C146.167 19.48 145.513 20.16 145.033 21.04C144.553 21.92 144.313 22.9867 144.313 24.24C144.313 25.4667 144.553 26.5333 145.033 27.44C145.513 28.32 146.167 29 146.993 29.48C147.82 29.96 148.753 30.2 149.793 30.2Z" fill="#355C87"/>
</svg>
